
        <svg xmlns="http://www.w3.org/2000/svg" xmlns:xlink="http://www.w3.org/1999/xlink" version="1.1" width="3145.161290322581" 
        height="3161.2903225806454" viewBox="0 0 3145.161290322581 3161.2903225806454">
			<rect fill="#111111" width="3145.161290322581" height="3161.2903225806454"/>
			<g transform="scale(8.064516129032258) translate(10, 10)">
				<defs id="SvgjsDefs1055"></defs><g id="SvgjsG1056" featureKey="rootContainer" transform="matrix(1,0,0,1,0,0)" fill="#58d5d3"><path xmlns="http://www.w3.org/2000/svg" fill-rule="evenodd" d="M5,65 L185,0 L365, 65 L185, 10 z M5,292 L185,372 L365,287 L185, 362 z"></path></g><g id="SvgjsG1057" featureKey="2ou6gm-0" transform="matrix(2.256456376014546,0,0,2.256456376014546,-51.540330335903356,84.35982796396611)" fill="#41a4c3"><path xmlns="http://www.w3.org/2000/svg" d="M65.532,53.661c2.473-2.341,2.081-5.645-0.869-7.341L59.1,43.118c-2.95-1.697-4.723-5.797-3.941-9.109l6.699-28.398  c0.781-3.312-0.602-4.108-3.073-1.767L24.467,36.339c-2.472,2.341-2.08,5.644,0.87,7.342l5.562,3.2  c2.949,1.698,4.724,5.798,3.943,9.109l-6.701,28.398c-0.78,3.312,0.602,4.107,3.074,1.767L65.532,53.661z"></path></g><g id="SvgjsG1058" featureKey="kZnDdN-0" transform="matrix(3.550127896911081,0,0,3.550127896911081,118.57994680983609,140.40925752078257)" fill="#58d5d3"><path d="M12.52 6 l1.76 0 l-6.26 14 l-1.38 0 l-6.24 -14 l1.76 0 l5.18 11.82 z M17.54 18.44 l6.66 0 l0 1.56 l-7.06 0 l-1.26 0 l0 -14 l1.66 0 l6.48 0 l0 1.56 l-6.48 0 l0 4.64 l5.04 0 l0 1.52 l-5.04 0 l0 4.72 z M36.06 6 l1.66 0 l0 14 l-1.28 0 l-8.48 -10.96 l0 10.96 l-1.66 0 l0 -14 l1.28 0 l8.48 10.98 l0 -10.98 z M46.980000000000004 5.800000000000001 c3.64 0 7.16 2.96 7.16 7.2 s-3.52 7.2 -7.16 7.2 c-3.66 0 -7.16 -2.96 -7.16 -7.2 s3.5 -7.2 7.16 -7.2 z M46.980000000000004 18.62 c2.74 0 5.44 -2.32 5.44 -5.62 s-2.7 -5.62 -5.44 -5.62 c-2.76 0 -5.44 2.32 -5.44 5.62 s2.68 5.62 5.44 5.62 z M70.82000000000001 6 l0 14 l-1.7 0 l0 -10.28 l-4.92 10.28 l-1.36 0 l-4.9 -10.26 l0 10.26 l-1.7 0 l0 -14 l1.64 0 l5.66 11.72 l5.64 -11.72 l1.64 0 z"></path></g>
			</g>
		</svg>
	